PathFileType	4	(X/Y/Z)	Falisse_et_al_2022_v1.trc
DataRate	CameraRate	NumFrames	NumMarkers	Units	OrigDataRate	OrigDataStartFrame	OrigNumFrames
0	0	4	47	m	0	175	200
Frame#	Time	RASI			LASI			CLAV			RSHO			LSHO			RKNE			RKNE_med			RTHI1			RTHI2			RTHI3			RANK			RANK_med			RTIB1			RTIB2			RTIB3			LKNE			LKNE_med			LTHI1			LTHI2			LTHI3			LANK			LANK_med			LTIB1			LTIB2			LTIB3			RPSI			LPSI			RELB			LELB			RW1			RW2			LW1			LW2			hum_l2			hum_r2			rad_l2			rad_r2			LH			RH			Foot_r1			Foot_r4			Foot_r6			Foot_r7			foot_l1			foot_l4			foot_l6			foot_l7		
		X1	Y1	Z1	X2	Y2	Z2	X3	Y3	Z3	X4	Y4	Z4	X5	Y5	Z5	X6	Y6	Z6	X7	Y7	Z7	X8	Y8	Z8	X9	Y9	Z9	X10	Y10	Z10	X11	Y11	Z11	X12	Y12	Z12	X13	Y13	Z13	X14	Y14	Z14	X15	Y15	Z15	X16	Y16	Z16	X17	Y17	Z17	X18	Y18	Z18	X19	Y19	Z19	X20	Y20	Z20	X21	Y21	Z21	X22	Y22	Z22	X23	Y23	Z23	X24	Y24	Z24	X25	Y25	Z25	X26	Y26	Z26	X27	Y27	Z27	X28	Y28	Z28	X29	Y29	Z29	X30	Y30	Z30	X31	Y31	Z31	X32	Y32	Z32	X33	Y33	Z33	X34	Y34	Z34	X35	Y35	Z35	X36	Y36	Z36	X37	Y37	Z37	X38	Y38	Z38	X39	Y39	Z39	X40	Y40	Z40	X41	Y41	Z41	X42	Y42	Z42	X43	Y43	Z43	X44	Y44	Z44	X45	Y45	Z45	X46	Y46	Z46	X47	Y47	Z47
175	1.92966216	2.5537507528535466	0.9300845157353218	0.12161047441568275	2.5746220942469384	0.9355614839788992	-0.1338386035260051	2.580322901284859	1.3605217494741886	-0.020547870274918376	2.4762602214213563	1.4019694937183242	0.158943491427377	2.504629955819902	1.3929067890845854	-0.18413847312194892	2.5961910519372178	0.4685631891402459	0.1334697896525658	2.5689086548528017	0.434934366676951	0.02360801328506479	2.550695290664519	0.7746672446770655	0.1890762565120026	2.491031924010605	0.750896609160937	0.20362279026703362	2.5397002861303832	0.7189012172259728	0.19601272002832187	2.272881398504896	0.19636354626834018	0.09050327829389318	2.304066473204004	0.2014781911324302	0.0113599360354657	2.4415117354849656	0.3290551605056431	0.13405260637172006	2.3830646606161046	0.3731077890498633	0.1381724721990279	2.3874641649657704	0.31604758323609505	0.13236578632998644	2.532930122856544	0.4584727826374343	-0.09885391096268652	2.493912018220882	0.4600974234953003	-0.012397354562606377	2.6052932439535064	0.6806449119066282	-0.09197128405083661	2.5795605267622745	0.6733126086263943	-0.15636584144683977	2.5943267274567665	0.6267212689116163	-0.11841104649287863	2.4456219948881444	0.07232109967244743	-0.09213490707894889	2.419653859017582	0.09213008669750439	-0.012509669106293607	2.505060059425608	0.2652422306160111	-0.09518375232594872	2.4534055107967756	0.267774022656314	-0.1376321345840682	2.4773637248706994	0.21919199346808949	-0.11329243366578425	2.394332332030194	0.9796530050581465	0.007394696604184704	2.3996287598049184	0.9865541234871608	-0.040304034015648055	2.415410720935528	1.0952971116138976	0.19846650902816737	2.4388763659005606	1.0665611301051277	-0.22954710414276658	2.6545181237272275	0.9788625541020964	0.15774088838027317	2.6043468096658486	0.9186867687524688	0.1672149903182018	2.5328453580705568	0.8446011602630102	-0.26708207712971804	2.4583829837951106	0.8555406085204862	-0.29772308193998676	2.4880764498009147	1.2317008476467721	-0.23418742628310002	2.453281531307804	1.2442071168276458	0.19422137797930292	2.4880309432057266	0.9726821291135809	-0.27205846952304674	2.560931671796204	0.9913472790056643	0.19260042789128515	2.509518999622315	0.7928167774292251	-0.31389006598131397	2.6802041415409734	0.9214540569369023	0.17334039954693164	2.237931323263673	0.2166181250594605	0.05019296884862899	2.2852619124348714	0.13350712792166822	0.09459165569964885	2.3803068558257516	0.07958479297715872	0.07737002771953819	2.4085333147261845	0.06103826072816555	0.03968526271798867	2.37446000295832	0.05836847590953903	-0.06277127055753501	2.4808083671282977	0.03680889409300669	-0.08555999171572337	2.571601535913322	0.04130627616217707	-0.03510783110574976	2.5938113424531046	0.03733861164675335	0.00689339765768348
176	1.9406888	2.5675882889171584	0.9315458220557101	0.12125177996964179	2.5866264696266854	0.9362264686366882	-0.13435628077339218	2.593571059496761	1.3613937004129884	-0.021701632881775394	2.4905508495859427	1.4032446966860737	0.15829680108343053	2.517018744266008	1.3936264662290534	-0.18492200527517794	2.6217715152851424	0.47378787142766005	0.13370681928493416	2.595176870105333	0.4392902148730416	0.02394583651982772	2.56725242098617	0.7784154583466287	0.18930662064434817	2.508376585492559	0.7528679423893061	0.2040484828383145	2.557962482715784	0.7223477084547718	0.1963036869932917	2.309976180233326	0.18874065439161042	0.09214904321596165	2.340695025044463	0.19500155331772684	0.012905804904951731	2.473112761463413	0.32835119901072257	0.13498770228294457	2.4129098857684723	0.3699619515988235	0.13920990122753296	2.4196432996557826	0.31312194852908193	0.13348141842071554	2.5353841366952032	0.4582567721077762	-0.09999550071508927	2.4964886064668463	0.4605113458302027	-0.013497854981683086	2.6130150769194556	0.6786208062062002	-0.0924207751176793	2.5870610078254668	0.6721237363173065	-0.15681618495399974	2.6007472490895545	0.6250643235261318	-0.11903446255842728	2.446297513426232	0.07308330045628697	-0.09248087487912784	2.420638597951233	0.09314330642986263	-0.012818243823282172	2.5067637614554923	0.2656774752186589	-0.09595340057499516	2.4550158957983763	0.26842754292675275	-0.13827435340983985	2.4787743850938977	0.2197515285547047	-0.1139266546747284	2.407340762545702	0.9807123682653165	0.008026813825720146	2.412293134568211	0.9874651429413193	-0.03973007605431008	2.43062360008743	1.0963821996773038	0.19859184661271667	2.4550006282051107	1.0661154653358962	-0.22933874683370722	2.6654287808295902	0.9710210132829492	0.16186400442051688	2.612776562486183	0.9132240959294401	0.17260200947592966	2.555595106028696	0.8454185164940908	-0.2632235204323097	2.480900123225202	0.8537244362783188	-0.2941243153609408	2.502128962873984	1.231841253919051	-0.23455317153181365	2.467974536714789	1.2454102698355767	0.19390666715048738	2.5071241186705238	0.9720618876927375	-0.2702840273968328	2.5722544272364436	0.9882507054544948	0.19579271462365339	2.533845745232716	0.7922505958037142	-0.30923293945375696	2.688650555569658	0.9130427537396137	0.17913022591741745	2.2737188637555037	0.2069836635297751	0.051456636558766033	2.3255326909136835	0.12718754719120973	0.09691841218544253	2.423338840356273	0.07825420264240386	0.08026822111114698	2.452355960954217	0.060393324843867224	0.04276978448071632	2.375178077421914	0.05988963564323414	-0.0631086035840754	2.481289366466545	0.03708290171686463	-0.08578817956464052	2.5721059062190834	0.04071312098419266	-0.035308242271065604	2.59411264058671	0.03710971678963551	0.006730802285830659
177	1.95171544	2.5814853274349647	0.9328018384299903	0.12090205219727435	2.5986167279619545	0.936670308403404	-0.13485445612657612	2.606826103327902	1.3620580349641238	-0.022848635202994197	2.504897567595948	1.404308189157275	0.15767727386060867	2.5293726519245383	1.3941380518228739	-0.18567349051578697	2.6466247081656373	0.47889953652018064	0.13379132570428492	2.6205939217715897	0.44361112819472065	0.024146612219660246	2.5837206450842283	0.7818884471158498	0.18949083351503768	2.5256487472361293	0.7546919136602016	0.20446966277242656	2.5760483329263444	0.725583559603898	0.19654418285512743	2.3478424656786263	0.18067252797760397	0.09394103959216107	2.3779705960470543	0.1881286536627393	0.014574553905948653	2.5047600412858864	0.32748755020513476	0.1359174940495433	2.442781580338516	0.3663888742005341	0.14027929491805458	2.452015750411695	0.30989272576486027	0.134635214673412	2.537716948853977	0.458061095735464	-0.10113847231845027	2.4989949359358614	0.4609427991296688	-0.014581614745211899	2.620626767909978	0.6764695332082503	-0.09289449167158412	2.594443683055517	0.6708253877845772	-0.1572775959583837	2.6070431042922118	0.6233175433137637	-0.11967946598357773	2.446932290389149	0.0738663800634955	-0.09280297173849456	2.4216205735188203	0.09416728108679523	-0.013090306643973197	2.508396121292674	0.26613598691786466	-0.09671928487366857	2.4565352586281892	0.2691007460655775	-0.13888714761541415	2.4801120874002023	0.22033343872462685	-0.11454554737595955	2.4203855876024627	0.9815684429428142	0.008718256385071461	2.424980133241971	0.9881697736508263	-0.03909553941423159	2.446027092863381	1.0972308321438065	0.1987749196420036	2.470967475120302	1.065542180734871	-0.22908611736100684	2.675962411968443	0.9629676055553642	0.16626333009135927	2.62085226881139	0.9077670875837652	0.17825580446058634	2.5786163788914753	0.8464110871372248	-0.259138928275191	2.5037213165510064	0.8518734493277453	-0.2901885679351668	2.5160341363523355	1.2318208844741108	-0.2348909328875657	2.4828070061472305	1.2463859079431576	0.19363581361510165	2.5262619278464538	0.9713566529849633	-0.26838273016582115	2.5834411050268034	0.9850496481468114	0.19915209705936554	2.558550441827232	0.7918140281209858	-0.3042304844778123	2.6966177457565044	0.9045546261194012	0.18524049600332737	2.310346326096303	0.19675872577407477	0.052907903282943675	2.3666022386414154	0.12062591962642254	0.0993614719556139	2.4669701419526247	0.07700989668612401	0.08318524037616601	2.496793064900545	0.05997076770532264	0.04586191264885989	2.375880941175406	0.061424326983787934	-0.0633948849886187	2.4817325052985844	0.03737512795539162	-0.0860045807081305	2.572583615730424	0.04014294810805335	-0.035532198570759094	2.594405450089282	0.0369181105600293	0.006532566831678029
178	1.96274209	2.5954534691078317	0.9338375566273587	0.12056157643050597	2.6106104192280086	0.9368818177696154	-0.13533066813956973	2.620102177952116	1.3625026975297954	-0.023987336315597785	2.5193123443631755	1.4051478320858206	0.1570842178083387	2.5417082903199577	1.3944292125635869	-0.18639175172138825	2.6706651642105714	0.48377934632128217	0.13372141008133562	2.6450671723891377	0.44777861861596585	0.024206446642726767	2.6000919220391854	0.7850355665038078	0.18962975970119922	2.542822460584615	0.7563311376362354	0.20488186203812986	2.5939313215764264	0.7285515275619594	0.1967329150035227	2.3864740011068273	0.17222087207594028	0.09582844629009313	2.415884795975166	0.1809120743893486	0.016318665461133322	2.5363934793468834	0.32644165226453326	0.13681502967044284	2.4726512138806322	0.36235810992645473	0.1413537077891988	2.4845421465102264	0.3063523113886668	0.1357952387412312	2.5399811567923067	0.45788382584378734	-0.10226379295797777	2.501481747801361	0.4613877487250411	-0.015630623076997238	2.6281603422533335	0.6741933155218667	-0.09338219407333789	2.601743192097046	0.6694163864379759	-0.15773986303214993	2.6132518605943287	0.6214823202043093	-0.12033350096510018	2.4475330030728863	0.07467201303632204	-0.09309820337844946	2.4226055278780656	0.09520361291288232	-0.013323564822870428	2.5099853347324275	0.26661297978187504	-0.09747007859541879	2.45799400747563	0.26979629689362516	-0.13946098122393874	2.481400711504781	0.22093672172361722	-0.115140234049005	2.433482270832801	0.9822092792913479	0.009466935207300107	2.4377063497364353	0.9886567661838113	-0.03840198535369552	2.461618327791149	1.0978370049462247	0.19901370060651374	2.486738730300539	1.064836398908049	-0.22878841023267127	2.686107749143092	0.9547713050080104	0.17091768894397616	2.6285881106820113	0.9023835287088385	0.18414858424077163	2.60187443492177	0.8476229894683815	-0.2548360564253001	2.526828757057888	0.8500282057118408	-0.28590934166310755	2.529779732811489	1.2316287103262014	-0.2351996589210823	2.497786936355316	1.2471247071431966	0.1934080966324775	2.545415975127449	0.9705766483617053	-0.26635434297441807	2.5944976304193865	0.9817815594595141	0.20265902063893004	2.5836078575290835	0.79156157495852	-0.2988835203451837	2.704110076379625	0.8960747277180078	0.19164158421104388	2.3478344850915964	0.18602270017236136	0.05450422266801279	2.408431319530683	0.11387732097508632	0.10185328630256832	2.5111111717040986	0.07586980937252931	0.08604123520994325	2.541735572061199	0.059789879718300784	0.04887469320950161	2.376572862166374	0.06297948423466082	-0.06363074948530441	2.4821408076526126	0.03768292265145627	-0.08620526608348199	2.5730357704126887	0.03958353973740297	-0.03577174693942916	2.594688590384284	0.036749284328225384	0.006307565357920569
